<?xml version="1.0" encoding="UTF-8"?>
<svg width="20px" height="27px" viewBox="0 0 20 27" version="1.1" xmlns="http://www.w3.org/2000/svg" xmlns:xlink="http://www.w3.org/1999/xlink">
    <!-- Generator: Sketch 52.5 (67469) - http://www.bohemiancoding.com/sketch -->
    <title>artists</title>
    <desc>Created with Sketch.</desc>
    <g id="Page-1" stroke="none" stroke-width="1" fill="none" fill-rule="evenodd">
        <g id="Nav" transform="translate(-32.000000, -427.000000)" fill="#352B1F" fill-rule="nonzero">
            <g id="artists" transform="translate(32.000000, 427.000000)">
                <path d="M19.2041943,0.86708078 C19.7855399,1.2027208 20.0916266,1.88582349 19.908286,2.63814849 C19.8997137,2.6723911 19.8854968,2.70617422 19.868086,2.73686921 L19.1675693,3.95235487 C18.8314891,4.53500155 18.1470853,4.84064818 17.3936299,4.65603282 C17.3721027,4.6507581 17.3518694,4.64000955 17.330828,4.63066072 L13.3544996,11.5173248 L13.6031811,11.6609011 C15.1869873,12.5746899 16.240526,14.9257433 15.139648,16.3853591 C14.5158678,17.2131053 12.8582551,18.7453858 12.7555655,19.7766263 C12.5848774,21.4843255 13.4680736,23.0642384 12.6431517,24.4925061 C11.97312,25.6524964 10.860651,26.4285834 9.55177553,26.7792955 C7.87088061,27.2296899 5.86704248,26.9782293 4.06328489,25.9368294 C0.855619754,24.084883 -0.505208519,20.435405 1.02510524,17.7848238 C1.84902175,16.3572198 3.65893673,16.3309312 5.05260207,15.3296294 C5.89433774,14.7250773 6.39242667,12.5230344 6.79701784,11.5690504 C7.11131448,10.8285683 7.78323264,10.3629894 8.57216406,10.1515958 C9.57672692,9.88242402 10.7710058,10.0254329 11.6567519,10.5374407 L11.9320279,10.6963714 L15.9063721,3.81260535 C15.8781807,3.79570696 15.851139,3.77573979 15.8282894,3.75228301 C15.2925146,3.19225 15.2155757,2.44735295 15.5512879,1.86480487 L16.2505106,0.654793031 C16.2680199,0.624466015 16.2896298,0.596195393 16.3146306,0.571748846 C16.8723765,0.0318542608 17.6215906,-0.0466358683 18.2050718,0.289615077 L19.2041943,0.86708078 Z M10.6702507,18.1260068 C12.0383697,17.7594204 12.8529567,16.3485143 12.4864689,14.9807634 C12.1198825,13.6126444 10.7089765,12.7980574 9.34085751,13.1646438 C7.97273857,13.5312301 7.15815156,14.9421362 7.52473792,16.3102552 C7.89122569,17.6780061 9.30249976,18.4924946 10.6702507,18.1260068 Z M9.53805297,13.9005873 C10.5002991,13.6427542 11.4926924,14.2157127 11.7505254,15.1779588 C12.0082599,16.139837 11.4353014,17.1322302 10.4730553,17.3900633 C9.51080915,17.6478964 8.51841588,17.0749378 8.26068141,16.1130597 C8.00284834,15.1508136 8.57580687,14.1584203 9.53805297,13.9005873 Z M7.61256115,23.0524993 L8.02454538,22.4116527 L4.37752879,20.0680963 L3.96554456,20.7089429 L7.61256115,23.0524993 Z" id="Combined-Shape"></path>
            </g>
        </g>
    </g>
</svg>