<?xml version="1.0" encoding="UTF-8"?>
<svg width="16px" height="27px" viewBox="0 0 16 27" version="1.1" xmlns="http://www.w3.org/2000/svg" xmlns:xlink="http://www.w3.org/1999/xlink">
    <!-- Generator: Sketch 52.5 (67469) - http://www.bohemiancoding.com/sketch -->
    <title>Fill 1</title>
    <desc>Created with Sketch.</desc>
    <g id="Page-1" stroke="none" stroke-width="1" fill="none" fill-rule="evenodd">
        <g id="Nav" transform="translate(-29.000000, -330.000000)" fill="#352B1F" fill-rule="nonzero">
            <g id="program_icon" transform="translate(29.801137, 329.554708)">
                <path d="M1.80006177,26.8114369 C0.630684639,26.7091297 -0.0838554311,25.8864251 0.00789667778,24.8376937 C0.0996809961,23.7885941 0.946135839,23.102372 2.11561143,23.2046878 C2.33391575,23.223787 2.5295819,23.2499075 2.7070235,23.2863034 L2.54200219,4.66531121 C2.55031882,4.72348067 2.55362672,4.74619024 2.55656428,4.76069571 C2.55111546,4.74076083 2.5491739,4.72817461 2.54363984,4.67676982 C2.54239586,4.66521472 2.5192694,2.99646622 2.5192694,2.99646622 C2.51244395,2.46923707 2.93712455,2.03439721 3.41810054,2.03118279 L13.3442001,1.00007118 C13.7139585,0.99556456 14.0372623,1.20543211 14.1978867,1.52004444 C14.2677877,1.604755 14.3103686,1.712942 14.3119823,1.83123424 L14.5169172,16.8539809 C14.517283,16.8807922 14.5155305,16.9071432 14.5118142,16.9328734 C14.4209094,17.9805372 13.3357904,18.6644014 12.1370897,18.5595287 C10.9677126,18.4572214 10.2531725,17.6345168 10.3449246,16.5857854 C10.4367089,15.5366859 11.2831638,14.8504637 12.4526394,14.9527796 C12.667659,14.9715913 12.8607997,14.9972817 13.0362544,15.0329323 L12.8995996,5.03284442 L4.00590131,5.55131107 L4.17971727,25.1105382 C4.08388149,26.2324454 2.99876246,26.9163097 1.80006177,26.8114369 Z" id="Fill-1"></path>
            </g>
        </g>
    </g>
</svg>